<?xml version="1.0" encoding="UTF-8"?>
<!DOCTYPE svg PUBLIC "-//W3C//DTD SVG 1.1//EN" "http://www.w3.org/Graphics/SVG/1.1/DTD/svg11.dtd">
<svg xmlns="http://www.w3.org/2000/svg" version="1.1" width="512px" height="512px" style="shape-rendering:geometricPrecision; text-rendering:geometricPrecision; image-rendering:optimizeQuality; fill-rule:evenodd; clip-rule:evenodd" xmlns:xlink="http://www.w3.org/1999/xlink">
<g><path style="opacity:0.952" fill="#000000" d="M 511.5,212.5 C 511.5,216.167 511.5,219.833 511.5,223.5C 506.438,231.685 499.438,233.852 490.5,230C 412.582,172.461 334.416,115.295 256,58.5C 177.074,115.05 98.5742,172.216 20.5,230C 11.5615,233.852 4.56152,231.685 -0.5,223.5C -0.5,219.833 -0.5,216.167 -0.5,212.5C 1.26589,210.229 3.26589,208.063 5.5,206C 86.4473,147.386 167.114,88.3864 247.5,29C 254.255,25.4023 260.589,26.069 266.5,31C 345.989,89.5777 425.656,147.911 505.5,206C 507.734,208.063 509.734,210.229 511.5,212.5 Z"/></g>
<g><path style="opacity:0.951" fill="#000000" d="M 65.5,231.5 C 75.5121,230.407 81.3455,234.74 83,244.5C 83.5,315.166 83.6667,385.833 83.5,456.5C 118.5,456.5 153.5,456.5 188.5,456.5C 188.333,415.165 188.5,373.832 189,332.5C 193.548,305.95 208.382,287.783 233.5,278C 263.473,269.615 288.639,277.115 309,300.5C 316.077,310.392 320.41,321.392 322,333.5C 322.5,374.499 322.667,415.499 322.5,456.5C 357.5,456.5 392.5,456.5 427.5,456.5C 427.333,385.833 427.5,315.166 428,244.5C 429.109,236.393 433.775,232.06 442,231.5C 448.611,231.963 452.944,235.296 455,241.5C 455.667,319.167 455.667,396.833 455,474.5C 452.96,479.876 449.127,483.043 443.5,484C 397.833,484.667 352.167,484.667 306.5,484C 299.583,482.747 295.749,478.58 295,471.5C 294.981,424.121 294.314,376.788 293,329.5C 282.713,306.171 265.213,298.004 240.5,305C 229.516,309.983 222.016,318.15 218,329.5C 216.686,377.121 216.019,424.788 216,472.5C 214.797,479.036 210.964,482.87 204.5,484C 158.833,484.667 113.167,484.667 67.5,484C 61.8733,483.043 58.04,479.876 56,474.5C 55.3333,396.833 55.3333,319.167 56,241.5C 57.3499,236.319 60.5166,232.986 65.5,231.5 Z"/></g>
</svg>
