<?xml version="1.0" encoding="UTF-8"?>
<!DOCTYPE svg PUBLIC "-//W3C//DTD SVG 1.1//EN" "http://www.w3.org/Graphics/SVG/1.1/DTD/svg11.dtd">
<svg xmlns="http://www.w3.org/2000/svg" version="1.1" width="483px" height="387px" style="shape-rendering:geometricPrecision; text-rendering:geometricPrecision; image-rendering:optimizeQuality; fill-rule:evenodd; clip-rule:evenodd" xmlns:xlink="http://www.w3.org/1999/xlink">
<g><path style="opacity:1" fill="#000000" d="M -0.5,-0.5 C 160.5,-0.5 321.5,-0.5 482.5,-0.5C 482.5,128.5 482.5,257.5 482.5,386.5C 321.5,386.5 160.5,386.5 -0.5,386.5C -0.5,257.5 -0.5,128.5 -0.5,-0.5 Z"/></g>
<g><path style="opacity:1" fill="#fafafa" d="M 326.5,48.5 C 327.833,48.5 329.167,48.5 330.5,48.5C 330.168,80.671 330.502,112.671 331.5,144.5C 331.953,145.458 332.619,146.292 333.5,147C 352.497,147.5 371.497,147.667 390.5,147.5C 390.5,152.833 390.5,158.167 390.5,163.5C 370.164,163.667 349.831,163.5 329.5,163C 322.609,160.377 318.109,155.544 316,148.5C 315.5,122.169 315.333,95.8354 315.5,69.5C 314.167,69.5 312.833,69.5 311.5,69.5C 310.167,69.5 308.833,69.5 307.5,69.5C 307.169,95.672 307.502,121.672 308.5,147.5C 310.331,158.327 316.331,165.827 326.5,170C 347.831,170.5 369.164,170.667 390.5,170.5C 390.5,175.833 390.5,181.167 390.5,186.5C 367.434,186.969 344.434,186.469 321.5,185C 305.048,178.714 295.381,166.881 292.5,149.5C 292.5,123.833 292.5,98.1667 292.5,72.5C 290.585,72.2155 288.919,72.5489 287.5,73.5C 286.167,73.5 284.833,73.5 283.5,73.5C 283.169,99.0055 283.502,124.339 284.5,149.5C 284.833,152.167 285.167,154.833 285.5,157.5C 285.12,159.698 285.787,161.365 287.5,162.5C 293.335,177.669 304.002,187.669 319.5,192.5C 321.277,193.6 323.277,194.434 325.5,195C 347.164,195.5 368.831,195.667 390.5,195.5C 390.5,200.5 390.5,205.5 390.5,210.5C 368.164,210.667 345.831,210.5 323.5,210C 308.687,207.094 296.021,200.261 285.5,189.5C 285.217,188.711 284.717,188.044 284,187.5C 283.5,228.832 283.333,270.165 283.5,311.5C 280.323,324.843 271.99,333.01 258.5,336C 243.018,339.179 230.852,334.346 222,321.5C 214.668,305.127 218.835,292.794 234.5,284.5C 236.967,284.245 238.967,283.245 240.5,281.5C 240.833,281.5 241.167,281.5 241.5,281.5C 245.798,280.8 250.131,280.467 254.5,280.5C 258.678,280.878 262.678,281.878 266.5,283.5C 266.56,284.043 266.893,284.376 267.5,284.5C 268.5,215.17 268.833,145.837 268.5,76.5C 266.585,76.2155 264.919,76.5489 263.5,77.5C 261.901,77.2322 260.568,77.5655 259.5,78.5C 254.9,78.2796 250.567,78.9462 246.5,80.5C 237.499,81.8335 228.499,83.1668 219.5,84.5C 214.55,84.7699 209.883,85.7699 205.5,87.5C 204.167,87.5 202.833,87.5 201.5,87.5C 201.333,106.503 201.5,125.503 202,144.5C 202.833,145.333 203.667,146.167 204.5,147C 223.497,147.5 242.497,147.667 261.5,147.5C 261.5,152.833 261.5,158.167 261.5,163.5C 241.831,163.667 222.164,163.5 202.5,163C 194.241,160.361 188.741,154.861 186,146.5C 185.5,127.836 185.333,109.17 185.5,90.5C 183.194,90.9926 180.861,91.3259 178.5,91.5C 178.048,111.554 178.548,131.554 180,151.5C 183.909,161.579 191.076,167.912 201.5,170.5C 220.993,171.497 240.66,171.83 260.5,171.5C 260.5,176.167 260.5,180.833 260.5,185.5C 239.5,185.5 218.5,185.5 197.5,185.5C 176.277,180.085 164.61,166.419 162.5,144.5C 162.5,127.833 162.5,111.167 162.5,94.5C 159.833,94.5 157.167,94.5 154.5,94.5C 154.17,113.008 154.503,131.341 155.5,149.5C 159.126,174.127 173.126,189.127 197.5,194.5C 218.327,195.497 239.327,195.831 260.5,195.5C 260.5,200.167 260.5,204.833 260.5,209.5C 239.167,209.5 217.833,209.5 196.5,209.5C 179.827,207.665 166.161,200.332 155.5,187.5C 155.44,186.957 155.107,186.624 154.5,186.5C 153.5,221.494 153.167,256.494 153.5,291.5C 152.58,299.915 148.58,306.415 141.5,311C 128.218,318.3 114.885,318.3 101.5,311C 87.7559,299.022 85.9225,285.522 96,270.5C 106.421,260.977 118.588,257.977 132.5,261.5C 133.514,262.674 134.847,263.34 136.5,263.5C 137.209,264.404 138.209,264.737 139.5,264.5C 139.5,202.833 139.5,141.167 139.5,79.5C 140.791,79.7373 141.791,79.404 142.5,78.5C 144.042,77.6993 145.708,77.366 147.5,77.5C 150.187,77.6641 152.854,77.4974 155.5,77C 156.416,76.7216 157.082,76.2216 157.5,75.5C 158.167,75.5 158.833,75.5 159.5,75.5C 165.194,75.7599 170.527,74.7599 175.5,72.5C 176.167,72.5 176.833,72.5 177.5,72.5C 181.489,72.8836 185.155,72.217 188.5,70.5C 192.489,70.8836 196.155,70.217 199.5,68.5C 202.482,68.0371 205.482,67.7038 208.5,67.5C 216.192,67.4421 223.526,66.1088 230.5,63.5C 233.455,62.8413 236.455,62.5079 239.5,62.5C 244.894,62.8758 249.894,61.8758 254.5,59.5C 263.793,58.0048 273.126,56.6714 282.5,55.5C 289.098,55.3754 295.431,54.3754 301.5,52.5C 304.997,51.5975 308.663,50.9309 312.5,50.5C 317.414,50.6382 322.081,49.9715 326.5,48.5 Z"/></g>
<g><path style="opacity:1" fill="#c3c3c3" d="M 325.5,48.5 C 325.833,48.5 326.167,48.5 326.5,48.5C 322.081,49.9715 317.414,50.6382 312.5,50.5C 316.591,49.1045 320.924,48.4379 325.5,48.5 Z"/></g>
<g><path style="opacity:1" fill="#bebebe" d="M 301.5,52.5 C 295.431,54.3754 289.098,55.3754 282.5,55.5C 288.556,53.5473 294.889,52.5473 301.5,52.5 Z"/></g>
<g><path style="opacity:1" fill="#acacac" d="M 254.5,59.5 C 249.894,61.8758 244.894,62.8758 239.5,62.5C 244.248,60.8625 249.248,59.8625 254.5,59.5 Z"/></g>
<g><path style="opacity:1" fill="#acacac" d="M 230.5,63.5 C 223.526,66.1088 216.192,67.4421 208.5,67.5C 215.596,65.5497 222.929,64.2164 230.5,63.5 Z"/></g>
<g><path style="opacity:1" fill="#838383" d="M 199.5,68.5 C 196.155,70.217 192.489,70.8836 188.5,70.5C 191.974,69.4751 195.64,68.8084 199.5,68.5 Z"/></g>
<g><path style="opacity:1" fill="#aaaaaa" d="M 188.5,70.5 C 185.155,72.217 181.489,72.8836 177.5,72.5C 180.974,71.4751 184.64,70.8084 188.5,70.5 Z"/></g>
<g><path style="opacity:1" fill="#525252" d="M 311.5,69.5 C 310.791,70.404 309.791,70.7373 308.5,70.5C 308.5,96.1667 308.5,121.833 308.5,147.5C 307.502,121.672 307.169,95.672 307.5,69.5C 308.833,69.5 310.167,69.5 311.5,69.5 Z"/></g>
<g><path style="opacity:1" fill="#8f8f8f" d="M 287.5,73.5 C 288.919,72.5489 290.585,72.2155 292.5,72.5C 292.5,98.1667 292.5,123.833 292.5,149.5C 291.502,124.339 291.169,99.0055 291.5,73.5C 290.167,73.5 288.833,73.5 287.5,73.5 Z"/></g>
<g><path style="opacity:1" fill="#a4a4a4" d="M 175.5,72.5 C 170.527,74.7599 165.194,75.7599 159.5,75.5C 164.606,73.9556 169.939,72.9556 175.5,72.5 Z"/></g>
<g><path style="opacity:1" fill="#383838" d="M 287.5,73.5 C 286.791,74.404 285.791,74.7373 284.5,74.5C 284.5,99.5 284.5,124.5 284.5,149.5C 283.502,124.339 283.169,99.0055 283.5,73.5C 284.833,73.5 286.167,73.5 287.5,73.5 Z"/></g>
<g><path style="opacity:1" fill="#a6a6a6" d="M 157.5,75.5 C 157.082,76.2216 156.416,76.7216 155.5,77C 152.854,77.4974 150.187,77.6641 147.5,77.5C 150.627,76.4192 153.96,75.7526 157.5,75.5 Z"/></g>
<g><path style="opacity:1" fill="#9f9f9f" d="M 263.5,77.5 C 264.919,76.5489 266.585,76.2155 268.5,76.5C 268.833,145.837 268.5,215.17 267.5,284.5C 266.893,284.376 266.56,284.043 266.5,283.5C 267.499,215.002 267.833,146.335 267.5,77.5C 266.167,77.5 264.833,77.5 263.5,77.5 Z"/></g>
<g><path style="opacity:1" fill="#222222" d="M 138.5,79.5 C 139.163,141.176 138.496,202.509 136.5,263.5C 134.847,263.34 133.514,262.674 132.5,261.5C 134.144,261.286 135.644,261.62 137,262.5C 137.167,201.332 137.667,140.332 138.5,79.5 Z"/></g>
<g><path style="opacity:1" fill="#bebebe" d="M 142.5,78.5 C 141.791,79.404 140.791,79.7373 139.5,79.5C 139.5,141.167 139.5,202.833 139.5,264.5C 138.209,264.737 137.209,264.404 136.5,263.5C 138.496,202.509 139.163,141.176 138.5,79.5C 139.568,78.5655 140.901,78.2322 142.5,78.5 Z"/></g>
<g><path style="opacity:1" fill="#363636" d="M 259.5,78.5 C 255.433,80.0538 251.1,80.7204 246.5,80.5C 250.567,78.9462 254.9,78.2796 259.5,78.5 Z"/></g>
<g><path style="opacity:1" fill="#585858" d="M 219.5,84.5 C 215.117,86.2301 210.45,87.2301 205.5,87.5C 209.883,85.7699 214.55,84.7699 219.5,84.5 Z"/></g>
<g><path style="opacity:1" fill="#737373" d="M 325.5,48.5 C 327.265,47.5386 329.265,47.2053 331.5,47.5C 331.5,79.8333 331.5,112.167 331.5,144.5C 330.502,112.671 330.168,80.671 330.5,48.5C 329.167,48.5 327.833,48.5 326.5,48.5C 326.167,48.5 325.833,48.5 325.5,48.5 Z"/></g>
<g><path style="opacity:1" fill="#1e1e1e" d="M 162.5,144.5 C 161.504,128.342 161.17,112.009 161.5,95.5C 159.5,95.5 157.5,95.5 155.5,95.5C 155.5,113.5 155.5,131.5 155.5,149.5C 154.503,131.341 154.17,113.008 154.5,94.5C 157.167,94.5 159.833,94.5 162.5,94.5C 162.5,111.167 162.5,127.833 162.5,144.5 Z"/></g>
<g><path style="opacity:1" fill="#8d8d8d" d="M 285.5,157.5 C 286.537,158.93 287.204,160.597 287.5,162.5C 285.787,161.365 285.12,159.698 285.5,157.5 Z"/></g>
<g><path style="opacity:1" fill="#c1c1c1" d="M 201.5,170.5 C 221.5,170.5 241.5,170.5 261.5,170.5C 261.5,175.833 261.5,181.167 261.5,186.5C 239.993,186.831 218.66,186.497 197.5,185.5C 218.5,185.5 239.5,185.5 260.5,185.5C 260.5,180.833 260.5,176.167 260.5,171.5C 240.66,171.83 220.993,171.497 201.5,170.5 Z"/></g>
<g><path style="opacity:1" fill="#bababa" d="M 155.5,187.5 C 154.833,222.167 154.167,256.833 153.5,291.5C 153.167,256.494 153.5,221.494 154.5,186.5C 155.107,186.624 155.44,186.957 155.5,187.5 Z"/></g>
<g><path style="opacity:1" fill="#343434" d="M 285.5,189.5 C 284.833,230.167 284.167,270.833 283.5,311.5C 283.333,270.165 283.5,228.832 284,187.5C 284.717,188.044 285.217,188.711 285.5,189.5 Z"/></g>
<g><path style="opacity:1" fill="#575757" d="M 319.5,192.5 C 321.927,192.523 324.26,193.023 326.5,194C 348.004,194.168 369.337,194.668 390.5,195.5C 368.831,195.667 347.164,195.5 325.5,195C 323.277,194.434 321.277,193.6 319.5,192.5 Z"/></g>
<g><path style="opacity:1" fill="#cccccc" d="M 197.5,194.5 C 218.833,194.5 240.167,194.5 261.5,194.5C 261.5,199.833 261.5,205.167 261.5,210.5C 239.66,210.831 217.994,210.497 196.5,209.5C 217.833,209.5 239.167,209.5 260.5,209.5C 260.5,204.833 260.5,200.167 260.5,195.5C 239.327,195.831 218.327,195.497 197.5,194.5 Z"/></g>
<g><path style="opacity:1" fill="#626262" d="M 254.5,280.5 C 250.131,280.467 245.798,280.8 241.5,281.5C 243.848,280.048 246.514,279.382 249.5,279.5C 251.369,279.507 253.036,279.84 254.5,280.5 Z"/></g>
<g><path style="opacity:1" fill="#a9a9a9" d="M 240.5,281.5 C 238.967,283.245 236.967,284.245 234.5,284.5C 236.033,282.755 238.033,281.755 240.5,281.5 Z"/></g>
</svg>
