<?xml version="1.0" encoding="UTF-8"?>
<!DOCTYPE svg PUBLIC "-//W3C//DTD SVG 1.1//EN" "http://www.w3.org/Graphics/SVG/1.1/DTD/svg11.dtd">
<svg xmlns="http://www.w3.org/2000/svg" version="1.1" width="512px" height="512px" style="shape-rendering:geometricPrecision; text-rendering:geometricPrecision; image-rendering:optimizeQuality; fill-rule:evenodd; clip-rule:evenodd" xmlns:xlink="http://www.w3.org/1999/xlink">
<g><path style="opacity:0.965" fill="#000000" d="M 489.5,-0.5 C 491.167,-0.5 492.833,-0.5 494.5,-0.5C 494.667,116.834 494.5,234.167 494,351.5C 490.137,397.362 465.97,426.195 421.5,438C 371.483,443.921 336.983,423.755 318,377.5C 307.195,335.652 318.695,301.485 352.5,275C 384.584,255.481 417.251,254.481 450.5,272C 454.951,274.783 459.117,277.95 463,281.5C 463.5,233.168 463.667,184.834 463.5,136.5C 374.891,158.444 286.391,180.777 198,203.5C 197.667,278.167 197.333,352.833 197,427.5C 191.14,473.522 165.64,501.522 120.5,511.5C 111.833,511.5 103.167,511.5 94.5,511.5C 54.8257,503.998 29.659,480.665 19,441.5C 12.1094,398.122 27.2761,364.955 64.5,342C 100.787,325.139 134.62,328.972 166,353.5C 166.5,262.834 166.667,172.167 166.5,81.5C 274.392,54.6108 382.058,27.2775 489.5,-0.5 Z M 462.5,38.5 C 463.831,60.2356 463.831,82.0689 462.5,104C 374.241,126.273 286.075,148.773 198,171.5C 197.173,149.594 197.34,127.76 198.5,106C 286.702,83.7835 374.702,61.2835 462.5,38.5 Z M 395.5,290.5 C 435.323,290.162 457.99,309.662 463.5,349C 460.71,381.458 443.376,401.125 411.5,408C 382.409,409.874 361.576,397.708 349,371.5C 339.195,339.575 348.362,314.742 376.5,297C 382.708,294.098 389.041,291.932 395.5,290.5 Z M 101.5,362.5 C 138.225,363.063 159.725,381.397 166,417.5C 165.562,450.598 149.396,471.431 117.5,480C 85.5545,483.015 63.3878,469.848 51,440.5C 43.2627,410.466 52.4294,386.966 78.5,370C 85.991,366.558 93.6577,364.058 101.5,362.5 Z"/></g>
</svg>
