<?xml version="1.0" encoding="UTF-8"?>
<svg version="1.1" xmlns="http://www.w3.org/2000/svg" width="512" height="512">
<path d="M0 0 C1.40251469 -0.00417941 2.80502599 -0.00966025 4.20753109 -0.01631981 C8.03837352 -0.0307136 11.8689997 -0.02654883 15.69985366 -0.019153 C19.84038902 -0.01440851 23.98087845 -0.02694248 28.12139893 -0.03717041 C36.22410715 -0.05433881 44.32673775 -0.05520248 52.42945944 -0.04995751 C59.01760828 -0.04591086 65.60573424 -0.04736524 72.19388199 -0.05270576 C73.60208686 -0.0538284 73.60208686 -0.0538284 75.03874031 -0.05497371 C76.9461162 -0.05650524 78.85349209 -0.05804359 80.76086797 -0.05958868 C98.63524049 -0.07330668 116.5095692 -0.06788099 134.38394071 -0.05640347 C150.72262064 -0.04647222 167.0611873 -0.05941112 183.39984976 -0.08333766 C200.19222034 -0.1077426 216.9845382 -0.11733307 233.77692616 -0.11068493 C243.19824017 -0.10719576 252.6194671 -0.10940479 262.04076767 -0.12693596 C270.06100686 -0.14167539 278.08109763 -0.14227066 286.10133396 -0.12486505 C290.18997103 -0.11636692 294.27834317 -0.11417623 298.36696625 -0.1295166 C302.11632495 -0.14340943 305.8651929 -0.13854229 309.61452354 -0.11927737 C311.59944856 -0.11376841 313.58439886 -0.12775047 315.56927574 -0.14263147 C330.20069446 -0.02317438 341.05626763 4.80602234 351.7204895 14.70018005 C363.03339254 26.65343609 364.42158486 39.89453853 364.37454224 55.58396912 C364.38025283 57.3096816 364.38721975 59.03539031 364.39533997 60.76109314 C364.41320308 65.42196722 364.41211683 70.08265235 364.40639758 74.7435503 C364.40329807 78.64049491 364.40940612 82.53740362 364.41543633 86.4343431 C364.42945527 95.62552514 364.42794011 104.81661416 364.41653442 114.00779724 C364.40503486 123.48399015 364.41916569 132.95990064 364.4459309 142.43605638 C364.46808142 150.58407527 364.47472735 158.73200546 364.46885449 166.88005233 C364.46548469 171.74159377 364.46790247 176.60295386 364.48510551 181.46446991 C364.50056398 186.03156328 364.49663144 190.59823699 364.47780037 195.16531372 C364.47411252 196.83986073 364.47722869 198.51443879 364.48768616 200.18895721 C364.50088397 202.47705662 364.48936144 204.76376383 364.47169495 207.05180359 C364.47148566 208.33116917 364.47127638 209.61053474 364.47106075 210.92866898 C363.71524071 216.15148168 361.22732894 219.19368259 357.4704895 222.76268005 C352.30548942 225.16071581 347.5702607 225.14149541 341.9704895 224.38768005 C336.99408069 222.07720453 334.66041582 219.10312808 331.9704895 214.38768005 C331.47106075 211.08204937 331.47106075 211.08204937 331.47169495 207.42471313 C331.46361811 206.40974391 331.46361811 206.40974391 331.45537812 205.37427026 C331.44216243 203.11949501 331.45722116 200.86581934 331.47219849 198.61106873 C331.46837327 196.98933412 331.46275249 195.36760291 331.45547485 193.74588013 C331.443537 190.25910939 331.44400382 186.77263986 331.45406914 183.28586388 C331.46965248 177.76739072 331.45593545 172.24922581 331.43803406 166.73077393 C331.40722657 156.00807534 331.4057119 145.28547117 331.40768433 134.56273651 C331.4090774 120.92509053 331.39866276 107.28751755 331.3591066 93.64992505 C331.34420711 88.16962401 331.34441795 82.68959687 331.35658443 77.20929182 C331.36131033 73.79233047 331.35375226 70.37547295 331.34304047 66.95852852 C331.34064347 65.38038429 331.34333717 63.80222237 331.35164833 62.22409821 C331.75371422 48.62813324 331.75371422 48.62813324 325.7204895 36.95018005 C318.42661652 32.80593404 311.23575708 33.10156766 303.04083252 33.12698364 C301.73446488 33.1231581 300.42809725 33.11933255 299.08214271 33.11539108 C295.4667997 33.10512117 291.85155598 33.10729031 288.23620486 33.11157167 C284.33290462 33.11404073 280.42962817 33.10502249 276.52633667 33.09753418 C268.88344775 33.0847901 261.24059396 33.08299313 253.5976962 33.08533444 C247.38464459 33.08711811 241.17160365 33.08536692 234.95855331 33.08111 C234.07398465 33.08051481 233.18941599 33.07991962 232.27804222 33.0793064 C230.48098454 33.07809463 228.68392686 33.0768805 226.88686918 33.07566402 C210.03697563 33.06478958 193.1871021 33.06695051 176.33720742 33.07304887 C160.92750822 33.07821779 145.51787224 33.06696306 130.10818554 33.04795065 C114.2798308 33.02857162 98.45150595 33.02031637 82.62313926 33.0240739 C73.73900451 33.02598586 64.85492356 33.02349884 55.97079849 33.00935936 C48.40752919 32.99744377 40.84434682 32.99604267 33.28107633 33.00814953 C29.42374864 33.014037 25.56657993 33.01514137 21.70926285 33.00314713 C17.52408725 32.99028486 13.33928979 33.00075589 9.15411377 33.01345825 C7.94000073 33.00608397 6.72588768 32.99870968 5.47498333 32.99111193 C-2.12482572 33.039653 -9.64303706 33.26170457 -15.4670105 38.63768005 C-19.61125651 45.93155303 -19.3156229 53.12241247 -19.29020691 61.31733704 C-19.29403246 62.62370467 -19.297858 63.93007231 -19.30179948 65.27602684 C-19.31206938 68.89136985 -19.30990024 72.50661358 -19.30561888 76.12196469 C-19.30314982 80.02526493 -19.31216806 83.92854138 -19.31965637 87.83183289 C-19.33240045 95.47472181 -19.33419742 103.1175756 -19.33185611 110.76047336 C-19.33007244 116.97352496 -19.33182363 123.18656591 -19.33608055 129.39961624 C-19.33667574 130.2841849 -19.33727093 131.16875356 -19.33788415 132.08012734 C-19.33909592 133.87718502 -19.34031005 135.6742427 -19.34152653 137.47130038 C-19.35240097 154.32119393 -19.35024004 171.17106746 -19.34414168 188.02096213 C-19.33897276 203.43066133 -19.35022749 218.84029732 -19.3692399 234.24998401 C-19.38861893 250.07833876 -19.39687418 265.9066636 -19.39311665 281.73503029 C-19.39120469 290.61916505 -19.39369171 299.50324599 -19.40783119 308.38737106 C-19.41974679 315.95064036 -19.42114789 323.51382273 -19.40904102 331.07709323 C-19.40315356 334.93442092 -19.40204918 338.79158962 -19.41404343 342.64890671 C-19.42690569 346.83408231 -19.41643466 351.01887976 -19.4037323 355.20405579 C-19.41479373 357.02522535 -19.41479373 357.02522535 -19.42607862 358.88318622 C-19.37753756 366.48299527 -19.15548598 374.00120661 -13.7795105 379.82518005 C-8.36570058 382.90120842 -3.08002034 383.63753007 3.07389832 383.63923645 C3.75351559 383.64220659 4.43313286 383.64517673 5.13334459 383.64823687 C7.39172884 383.65582486 9.64984899 383.64940454 11.90823364 383.64305115 C13.53498001 383.64580342 15.16172504 383.64948476 16.78846741 383.65402222 C20.2822406 383.66211369 23.77594988 383.66430789 27.26973152 383.66207504 C32.79580515 383.65923577 38.32175158 383.67361584 43.84779358 383.6910553 C59.5583507 383.73802677 75.26889845 383.7620291 90.97952271 383.76853943 C99.66347746 383.7722898 108.34728757 383.79031382 117.03118032 383.82363379 C122.523215 383.84384536 128.01487663 383.84621979 133.50693333 383.83535361 C136.92379922 383.83274608 140.34044789 383.84675188 143.75725746 383.86543465 C145.33987893 383.87075544 146.92254043 383.86926171 148.50514603 383.86039925 C150.66863755 383.84926201 152.83066209 383.8627253 154.99406433 383.88215637 C156.20358293 383.88324591 157.41310152 383.88433544 158.65927219 383.88545799 C163.77685068 384.66165616 166.84508616 387.20304496 170.3454895 390.88768005 C172.74352526 396.05268014 172.72430486 400.78790885 171.9704895 406.38768005 C169.66088524 411.36221231 166.6932856 413.71103668 161.9704895 416.38768005 C158.51706505 416.89104462 158.51706505 416.89104462 154.64807129 416.89561462 C153.57502383 416.90497457 153.57502383 416.90497457 152.48029864 416.9145236 C150.09436473 416.93041864 147.70945748 416.91786356 145.32351685 416.90525818 C143.60812791 416.91068117 141.89274364 416.91780482 140.17736816 416.92649841 C135.52405726 416.94472195 130.87110146 416.93766607 126.2177844 416.92498207 C121.33868181 416.91483958 116.45960919 416.92425213 111.58050537 416.93052673 C103.38085491 416.93780364 95.18134854 416.92821862 86.98171997 416.90916443 C77.52389563 416.88743916 68.06641681 416.89441522 58.60860097 416.91647005 C50.47414726 416.93467491 42.33979707 416.93715628 34.20532954 416.92671537 C29.35360922 416.92050271 24.50205073 416.91958226 19.65034103 416.93286133 C15.0816232 416.94449182 10.51334611 416.93626381 5.94467545 416.9132843 C4.27588377 416.90803352 2.60705447 416.90944807 0.9382782 416.91833496 C-15.46551672 416.99757627 -27.55433083 413.41757869 -39.7795105 402.07518005 C-50.16218311 391.104809 -52.48566928 379.0064526 -52.41719055 364.35816956 C-52.42136997 362.95565487 -52.4268508 361.55314357 -52.43351036 360.15063846 C-52.44790415 356.31979603 -52.44373938 352.48916986 -52.43634355 348.6583159 C-52.43159907 344.51778054 -52.44413303 340.3772911 -52.45436096 336.23677063 C-52.47152937 328.13406241 -52.47239303 320.0314318 -52.46714806 311.92871012 C-52.46310141 305.34056128 -52.46455579 298.75243532 -52.46989632 292.16428757 C-52.47064474 291.22548432 -52.47139316 290.28668107 -52.47216426 289.31942924 C-52.47369579 287.41205335 -52.47523414 285.50467747 -52.47677923 283.59730159 C-52.49049723 265.72292907 -52.48507154 247.84860036 -52.47359402 229.97422884 C-52.46366278 213.63554892 -52.47660167 197.29698226 -52.50052821 180.9583198 C-52.52493315 164.16594921 -52.53452362 147.37363135 -52.52787548 130.5812434 C-52.52438631 121.15992938 -52.52659534 111.73870246 -52.54412651 102.31740189 C-52.55886594 94.2971627 -52.55946121 86.27707193 -52.5420556 78.25683559 C-52.53355747 74.16819853 -52.53136678 70.07982639 -52.54670715 65.99120331 C-52.56059998 62.24184461 -52.55573285 58.49297665 -52.53646792 54.74364601 C-52.53095896 52.75872099 -52.54494102 50.7737707 -52.55982202 48.78889382 C-52.44036493 34.15747509 -47.61116821 23.30190193 -37.7170105 12.63768005 C-26.74663944 2.25500745 -14.64828304 -0.06847873 0 0 Z " fill="#000000" transform="translate(100.02951049804688,47.61231994628906)"/>
<path d="M0 0 C2.13684623 1.63658123 4.17916954 3.33747887 6.2109375 5.1015625 C7.2215625 5.8646875 8.2321875 6.6278125 9.2734375 7.4140625 C24.86002046 21.67412776 33.13293118 41.77646095 34.4296875 62.6171875 C34.7925233 77.07014699 31.93496628 89.88878461 26.2109375 103.1015625 C27.0359375 103.74480469 27.8609375 104.38804687 28.7109375 105.05078125 C35.9451528 110.70569603 43.11179384 116.43471341 50.22192383 122.24487305 C55.29070125 126.37838802 60.41722463 130.43196954 65.60742188 134.41210938 C74.65097869 141.42168606 74.65097869 141.42168606 76.2109375 146.1015625 C76.78584039 151.71918501 77.33655251 157.29855862 74.0859375 162.1640625 C70.89299674 165.81059652 67.74918576 167.72189175 62.88671875 168.44921875 C53.07209814 169.03539058 46.79323135 162.99003234 39.5859375 156.9765625 C38.18439413 155.82194443 36.78203498 154.66831597 35.37890625 153.515625 C34.33355713 152.65565918 34.33355713 152.65565918 33.26708984 151.77832031 C29.6136644 148.79901303 25.8965906 145.90160038 22.171875 143.01220703 C19.40617122 140.85888627 16.68704309 138.67544342 14.03515625 136.3828125 C13.06191406 135.5475 12.08867187 134.7121875 11.0859375 133.8515625 C9.81363281 132.73007812 9.81363281 132.73007812 8.515625 131.5859375 C6.38718329 129.90580868 6.38718329 129.90580868 4.2109375 130.16796875 C1.73280919 131.3247513 -0.41041495 132.73753919 -2.6640625 134.2890625 C-21.17774254 146.21520295 -42.13477721 149.81451875 -63.74926758 145.58032227 C-85.27382854 140.8540229 -102.8137739 128.22180515 -114.89453125 109.91015625 C-126.23917491 91.59232068 -129.78388995 69.68698943 -125.6015625 48.5390625 C-120.25440367 27.47374375 -108.27362675 9.8803409 -90.08203125 -1.96484375 C-61.71710281 -18.62040671 -27.37234582 -18.63159673 0 0 Z M-84.00390625 36.578125 C-92.46700387 48.54127831 -94.78334921 59.64616338 -93.7890625 74.1015625 C-93.14178421 77.62143352 -92.14480488 80.79473 -90.7890625 84.1015625 C-90.40621094 85.10896484 -90.40621094 85.10896484 -90.015625 86.13671875 C-85.07607828 97.53392977 -74.4059276 106.63695118 -63.06640625 111.2890625 C-49.87115425 115.99680249 -37.39901071 114.69896489 -24.7265625 108.9765625 C-13.51132224 102.99510103 -5.12912449 93.28888013 -0.9140625 81.2890625 C2.84722867 68.22838272 1.73085421 55.69308784 -4.3515625 43.4765625 C-11.4131819 31.35090337 -21.90178231 23.60720833 -35.23046875 19.83203125 C-53.65861984 16.0493043 -71.93779781 22.05915263 -84.00390625 36.578125 Z " fill="#000000" transform="translate(387.7890625,274.8984375)"/>
<path d="M0 0 C0.89700912 -0.00453111 1.79401823 -0.00906223 2.71820945 -0.01373065 C5.7243573 -0.02639226 8.7303244 -0.02475313 11.73649597 -0.02310181 C13.89171583 -0.02908596 16.04693355 -0.03589125 18.20214844 -0.04345703 C24.05758611 -0.06113597 29.91296535 -0.06581322 35.76842713 -0.0670886 C40.6565709 -0.06898745 45.54470105 -0.07634485 50.43283957 -0.08343279 C61.96603153 -0.09972165 73.49919227 -0.1046013 85.03239441 -0.10317993 C96.92881907 -0.10197845 108.82506233 -0.12308066 120.72144109 -0.15466726 C130.93560382 -0.18082076 141.14970727 -0.19154761 151.36390322 -0.19026911 C157.46413115 -0.1897592 163.5641979 -0.1954589 169.66439247 -0.21662521 C175.40262885 -0.23599174 181.14055003 -0.23614267 186.87879753 -0.22159195 C188.98305853 -0.21950078 191.08733916 -0.22422301 193.19156647 -0.23631287 C196.06810363 -0.25176757 198.9435543 -0.24245543 201.82006836 -0.22705078 C203.0640113 -0.24248147 203.0640113 -0.24248147 204.3330844 -0.25822389 C210.01966239 -0.19109945 214.34176296 1.09489202 219.10050964 4.26742554 C223.74356918 9.14859069 224.45778978 13.2344316 224.38175964 19.76351929 C223.82526234 24.71789109 221.07757374 27.4066786 217.47550964 30.57992554 C213.13562204 33.66352988 209.57388505 33.41570434 204.39646912 33.41459656 C203.48427793 33.41827325 202.57208675 33.42194993 201.63225341 33.42573804 C198.55688791 33.43680505 195.48155617 33.44062382 192.40617371 33.44442749 C190.20874422 33.45068985 188.0113158 33.45733644 185.81388855 33.46434021 C179.83032756 33.4817708 173.84677457 33.49230751 167.86319447 33.50054574 C164.12733381 33.50569136 160.39147565 33.51176728 156.65561676 33.51805687 C145.64462648 33.53602057 134.6336408 33.55039898 123.62263845 33.55823327 C121.60712415 33.55967178 119.59160986 33.56112315 117.57609558 33.56259155 C116.90890274 33.56307529 116.24170989 33.56355903 115.55429909 33.56405743 C104.74639439 33.57235759 93.93860038 33.59769371 83.13074401 33.63017223 C72.03619148 33.66324062 60.94168504 33.68092139 49.8470819 33.68444985 C43.61719616 33.68680388 37.38748532 33.69581027 31.15764618 33.72091103 C25.29717602 33.74414151 19.43699653 33.74844511 13.57649231 33.73814964 C11.42462448 33.73765296 9.27274259 33.74401235 7.12091827 33.75770569 C4.18442316 33.7753478 1.24897985 33.76835602 -1.68751526 33.75517273 C-2.54024639 33.76614198 -3.39297752 33.77711122 -4.27154899 33.78841287 C-9.62635954 33.73032256 -12.64128059 32.80420721 -16.89949036 29.26742554 C-21.32922755 24.2390752 -22.19965624 21.38577263 -22.11433411 14.80648804 C-21.71083852 10.03790382 -19.93994932 7.2531235 -16.52449036 4.01742554 C-10.98315747 0.32320361 -6.48180758 -0.02401409 0 0 Z " fill="#000000" transform="translate(154.8994903564453,153.73257446289063)"/>
<path d="M0 0 C0.94548203 -0.00861557 1.89096405 -0.01723114 2.86509705 -0.02610779 C5.98073956 -0.04875219 9.09548147 -0.04203133 12.21118164 -0.03295898 C14.38302375 -0.03819538 16.55486358 -0.04447191 18.72669983 -0.05174255 C23.27526563 -0.06214409 27.82351854 -0.05758885 32.37207031 -0.04296875 C38.19406311 -0.02578513 44.01506862 -0.04927302 49.83695126 -0.08445835 C54.32119761 -0.1064448 58.80520822 -0.10498771 63.28949165 -0.09669304 C65.43564499 -0.09587414 67.58181574 -0.10272571 69.72791862 -0.11746407 C72.73198561 -0.13493165 75.73428459 -0.12034811 78.73828125 -0.09765625 C80.06095001 -0.11519455 80.06095001 -0.11519455 81.41033936 -0.13308716 C87.37419482 -0.04167244 91.11152499 1.35395506 95.43383789 5.53344727 C98.52112929 9.81581921 99.01520887 13.83944922 98.85180664 18.99829102 C98.00947459 24.10738917 95.46062749 27.93926902 91.42575073 31.11291504 C87.23769038 33.10136692 83.56320359 32.96850104 78.98120117 32.95336914 C78.03586517 32.96183868 77.09052917 32.97030823 76.11654663 32.97903442 C72.99561052 33.00240808 69.87516737 33.00342642 66.75415039 33.00219727 C64.58087975 33.00929898 62.40761099 33.01699799 60.23434448 33.02526855 C55.67985828 33.0387145 51.12554542 33.04028174 46.57104492 33.03442383 C40.74121066 33.02852997 34.91220981 33.05910645 29.0825367 33.09954071 C24.59401995 33.12542072 20.10570373 33.12829477 15.61712265 33.12464905 C13.46816795 33.12634023 11.31920398 33.13598253 9.17032242 33.15379333 C6.16140629 33.17598672 3.15417519 33.16627836 0.14526367 33.14868164 C-0.73808655 33.16194489 -1.62143677 33.17520813 -2.53155518 33.18887329 C-8.77660975 33.10422887 -11.84699575 31.65043219 -16.56616211 27.53344727 C-20.13390526 22.58464225 -20.39830087 17.43321761 -19.56616211 11.53344727 C-16.34458142 1.94150927 -9.10356658 -0.06721944 0 0 Z " fill="#000000" transform="translate(152.566162109375,239.466552734375)"/>
</svg>
