<?xml version="1.0" standalone="no"?>
<!DOCTYPE svg PUBLIC "-//W3C//DTD SVG 20010904//EN"
 "http://www.w3.org/TR/2001/REC-SVG-20010904/DTD/svg10.dtd">
<svg version="1.0" xmlns="http://www.w3.org/2000/svg"
 width="487.000000pt" height="387.000000pt" viewBox="0 0 487.000000 387.000000"
 preserveAspectRatio="xMidYMid meet">

<g transform="translate(0.000000,387.000000) scale(0.100000,-0.100000)"
fill="#000000" stroke="none">
<path d="M0 1935 l0 -1935 2435 0 2435 0 0 1935 0 1935 -2435 0 -2435 0 0
-1935z m2762 788 l3 -178 108 -3 107 -3 0 -29 0 -30 -111 0 c-61 0 -119 4
-129 10 -30 16 -40 66 -40 201 0 79 -4 129 -10 129 -14 0 -13 -295 0 -321 21
-37 63 -49 180 -49 l110 0 0 -30 0 -30 -113 0 c-97 0 -119 3 -157 23 -79 40
-85 56 -88 238 -3 130 -6 159 -18 159 -11 0 -14 -27 -14 -150 0 -170 7 -198
63 -247 49 -43 91 -53 220 -53 l107 0 0 -31 0 -32 -127 5 c-133 5 -200 23
-232 61 -7 10 -17 17 -22 17 -5 0 -9 -101 -9 -225 0 -252 -4 -270 -64 -299
-42 -20 -67 -20 -110 -2 -121 51 -63 211 71 192 l43 -6 0 375 c0 371 0 375
-20 375 -12 0 -66 -7 -120 -17 l-100 -16 0 -108 0 -108 108 -3 107 -3 3 -27 3
-28 -116 0 c-110 0 -117 1 -140 25 -23 23 -25 31 -25 130 0 89 -2 105 -16 105
-14 0 -15 -15 -12 -115 3 -110 4 -116 31 -142 27 -27 31 -28 153 -31 l125 -4
-3 -26 c-3 -26 -5 -27 -83 -30 -132 -5 -181 4 -226 45 -48 43 -59 81 -59 201
0 75 -3 92 -15 92 -12 0 -15 -17 -15 -96 0 -119 14 -168 61 -215 46 -46 98
-59 233 -59 l106 0 0 -25 0 -25 -130 0 c-140 0 -174 8 -237 56 l-33 25 0 -204
c0 -202 0 -204 -24 -230 -13 -14 -36 -29 -51 -33 -38 -9 -103 2 -125 21 -80
72 -18 181 98 174 l47 -3 3 336 2 336 68 12 c313 54 582 98 604 99 l28 1 2
-177z m-1162 -1155 c20 -86 26 -89 47 -18 18 63 20 65 54 68 l36 3 17 -65 c10
-37 21 -66 25 -66 4 0 14 28 22 63 14 59 16 62 47 65 20 2 32 -1 32 -9 0 -7
-14 -66 -31 -131 l-32 -118 -37 0 -38 0 -17 65 c-10 36 -21 62 -25 58 -5 -4
-15 -34 -24 -66 l-17 -58 -36 3 -36 3 -34 120 c-18 66 -33 123 -33 128 0 4 15
7 34 7 33 0 34 -2 46 -52z m440 -78 l0 -130 -35 0 -35 0 0 123 c0 68 3 127 7
130 3 4 19 7 35 7 l28 0 0 -130z m180 30 l0 -100 50 0 c49 0 50 -1 50 -30 l0
-30 -85 0 -85 0 0 130 0 130 35 0 35 0 0 -100z m258 -2 l3 -98 49 0 c49 0 50
-1 50 -30 l0 -30 -85 0 -85 0 0 131 0 130 33 -3 32 -3 3 -97z m260 -30 l3
-128 -36 0 -35 0 0 131 0 130 33 -3 32 -3 3 -127z m272 103 c0 -28 -2 -30 -47
-33 -36 -2 -49 -7 -51 -20 -3 -15 4 -18 47 -18 50 0 51 -1 51 -29 0 -28 -2
-30 -47 -33 l-48 -3 -3 -47 c-3 -46 -5 -48 -33 -48 l-29 0 0 130 0 130 80 0
80 0 0 -29z m179 -17 c27 -50 27 -50 63 15 14 26 23 31 53 31 l36 0 -46 -88
c-32 -63 -45 -100 -45 -130 0 -41 -1 -42 -35 -42 -35 0 -35 0 -35 46 0 36 -10
65 -46 130 l-46 84 39 0 c35 0 40 -4 62 -46z m-1651 -370 c12 -8 22 -19 22
-23 0 -13 -36 -19 -54 -9 -10 5 -23 5 -33 -1 -15 -8 -14 -11 12 -21 67 -26 80
-36 83 -62 4 -37 -22 -58 -72 -58 -49 0 -82 20 -73 44 7 18 32 22 42 6 3 -5
18 -10 31 -10 37 0 25 22 -17 33 -32 8 -69 39 -69 59 0 5 11 20 25 33 28 29
70 32 103 9z m642 1 c32 -16 39 -42 16 -51 -8 -3 -26 2 -40 11 -24 16 -28 16
-51 1 -27 -18 -34 -63 -13 -84 15 -15 53 -15 78 0 15 10 22 10 32 0 9 -9 7
-16 -7 -32 -26 -29 -107 -28 -134 2 -27 29 -34 53 -27 93 12 65 82 93 146 60z
m550 -5 c27 -27 25 -62 -6 -99 l-26 -31 26 0 c19 0 26 -5 26 -20 0 -18 -7 -20
-70 -20 -61 0 -70 2 -70 18 0 10 20 35 45 55 44 37 55 60 35 72 -5 3 -18 0
-28 -6 -11 -7 -27 -9 -37 -5 -17 6 -16 8 5 31 29 31 72 33 100 5z m235 -5 c14
-13 25 -34 26 -47 4 -82 -22 -118 -86 -118 -53 0 -76 23 -82 84 -5 40 -2 48
25 76 39 38 83 40 117 5z m240 0 c20 -19 25 -35 25 -71 0 -64 -27 -94 -85 -94
-53 0 -76 23 -82 84 -5 40 -2 48 25 76 39 38 83 40 117 5z m216 14 c16 -8 18
-13 8 -25 -7 -8 -20 -12 -30 -9 -10 4 -24 3 -30 -1 -7 -4 1 -11 22 -18 42 -14
61 -49 48 -85 -6 -14 -16 -29 -22 -33 -24 -15 -77 -8 -98 13 -30 30 -23 123
11 151 25 20 61 23 91 7z m-1731 -89 c0 -83 -1 -90 -20 -90 -19 0 -20 7 -20
90 0 83 1 90 20 90 19 0 20 -7 20 -90z m177 43 l42 -48 1 48 c0 44 2 47 25 47
l26 0 -3 -87 c-3 -78 -5 -88 -23 -92 -13 -2 -34 13 -67 50 l-47 54 -1 -52 c0
-46 -3 -53 -20 -53 -19 0 -20 7 -20 90 0 86 1 90 22 90 14 0 38 -18 65 -47z
m563 27 c0 -17 -7 -20 -45 -20 -33 0 -45 -4 -45 -15 0 -10 11 -15 35 -15 28 0
35 -4 35 -20 0 -16 -7 -20 -35 -20 -24 0 -35 -5 -35 -15 0 -11 12 -15 45 -15
38 0 45 -3 45 -20 0 -18 -7 -20 -70 -20 l-70 0 0 90 0 90 70 0 c63 0 70 -2 70
-20z"/>
<path d="M2886 1164 c-19 -18 -21 -65 -4 -82 18 -18 46 -14 58 9 25 46 -21
107 -54 73z"/>
<path d="M3126 1164 c-19 -18 -21 -65 -4 -82 18 -18 46 -14 58 9 25 46 -21
107 -54 73z"/>
<path d="M3354 1105 c-4 -9 -2 -21 4 -27 15 -15 44 -1 40 19 -4 23 -36 29 -44
8z"/>
</g>
</svg>
