<?xml version="1.0" encoding="UTF-8"?>
<svg version="1.1" xmlns="http://www.w3.org/2000/svg" width="512" height="512">
<path d="M0 0 C7.38461272 5.09980092 12.48804824 11.38359403 15 20 C15.25299966 22.97904521 15.25299966 22.97904521 15.25726891 26.17922688 C15.2637178 27.40481133 15.27016669 28.63039578 15.276811 29.89311916 C15.27386903 31.24485268 15.27073362 32.5965858 15.26742554 33.94831848 C15.27116338 35.39076512 15.27576543 36.83320974 15.28115618 38.27565116 C15.29338507 42.23529365 15.29312585 46.19485164 15.29076743 50.15450871 C15.29035924 54.42661218 15.30139864 58.69868857 15.31088257 62.97077942 C15.32749282 71.33904719 15.33299212 79.70728679 15.33410732 88.07556967 C15.33505777 94.87789024 15.33916786 101.68020152 15.34550858 108.48251915 C15.36312088 127.76961895 15.37234744 147.0566965 15.37084763 166.3438044 C15.37076772 167.38349592 15.3706878 168.42318744 15.37060547 169.49438477 C15.37052371 170.53534613 15.37044195 171.5763075 15.37035771 172.64881315 C15.36954476 189.52002403 15.38868463 206.39114563 15.4168822 223.26233069 C15.44560882 240.58679058 15.45942263 257.91120693 15.45769465 275.23569125 C15.45703068 284.96158187 15.46252597 294.6873789 15.48405075 304.41324806 C15.50225959 312.6938715 15.50661231 320.97435893 15.4930319 329.25499371 C15.48650081 333.47892642 15.48639007 337.70259815 15.5037384 341.92650604 C15.51946803 345.79613168 15.51660692 349.6652894 15.49917014 353.53490361 C15.49609998 354.93191627 15.49973332 356.32896384 15.51089029 357.72593532 C15.59522068 369.03758252 13.70493456 376.84876413 5.92578125 385.2109375 C-1.55466607 392.16031858 -9.52074337 394.51877795 -19.62890625 394.30078125 C-30.32745255 393.34621802 -37.22854696 388.02485057 -45 381 C-45.83402344 380.25105469 -46.66804687 379.50210937 -47.52734375 378.73046875 C-49.17967245 377.23997951 -50.82810277 375.74515751 -52.47265625 374.24609375 C-55.06962393 371.93812402 -57.73404013 369.74444137 -60.4375 367.5625 C-65.21284402 363.70058325 -69.73667685 359.62325776 -74.25390625 355.46484375 C-76.91875166 353.07292703 -79.64831825 350.80745116 -82.4375 348.5625 C-86.97236161 344.90493736 -91.25536183 341.05382973 -95.51708984 337.08837891 C-99.62779276 333.28601193 -103.92275584 329.75729408 -108.28515625 326.24609375 C-112.06567286 323.11832821 -115.64480875 319.78726117 -119.25390625 316.46484375 C-121.91875166 314.07292703 -124.64831825 311.80745116 -127.4375 309.5625 C-131.9662304 305.90988245 -136.24488214 302.06537268 -140.49951172 298.10375977 C-144.75784738 294.16288893 -149.18837798 290.497096 -153.72265625 286.875 C-156 285 -156 285 -157.32115173 283.40686035 C-159.63408668 281.46864083 -161.14570277 281.62190052 -164.13891602 281.61523438 C-165.71184166 281.60006775 -165.71184166 281.60006775 -167.31654358 281.58459473 C-168.45087326 281.58761597 -169.58520294 281.59063721 -170.75390625 281.59375 C-172.50984352 281.57749573 -172.50984352 281.57749573 -174.30125427 281.56091309 C-178.05505844 281.52657204 -181.80855929 281.51105302 -185.5625 281.5 C-190.48075831 281.48537463 -195.39834497 281.4515163 -200.31640625 281.40625 C-201.43656631 281.40927124 -202.55672638 281.41229248 -203.71083069 281.41540527 C-214.50265456 281.31349171 -223.6552984 279.09779216 -232 272 C-239.72342646 263.70321874 -241.44893688 256.13302425 -241.40405273 245.07299805 C-241.41091599 243.88834961 -241.41777924 242.70370117 -241.42485046 241.4831543 C-241.43996842 238.24941505 -241.44162501 235.01603916 -241.43590808 231.78227973 C-241.43280587 229.07384366 -241.43892038 226.36545912 -241.44494683 223.6570304 C-241.45897108 217.2612998 -241.45744949 210.86570281 -241.44604492 204.4699707 C-241.43457681 197.89370249 -241.44862178 191.31784273 -241.4754414 184.74162835 C-241.49767066 179.07680525 -241.50421927 173.41210966 -241.49836498 167.74724609 C-241.49501003 164.37221196 -241.49731154 160.99743929 -241.51461601 157.62244225 C-241.52955608 153.85305135 -241.51882448 150.08454936 -241.50170898 146.31518555 C-241.51137695 145.21199478 -241.52104492 144.10880402 -241.53100586 142.97218323 C-241.43695755 133.03985392 -238.88300474 125.06201788 -231.98828125 117.75390625 C-222.89833266 109.73546437 -213.3366708 108.73624584 -201.70703125 108.97265625 C-199.27800883 108.98646568 -196.84896897 108.99744391 -194.41992188 109.00585938 C-190.61829436 109.02619942 -186.82005803 109.0623312 -183.01928711 109.1472168 C-167.12095994 110.20083806 -167.12095994 110.20083806 -153.08073425 104.21055603 C-150.85834584 101.95736592 -148.9413504 99.49595995 -147 97 C-145.20528016 95.45400783 -143.37587402 93.9464466 -141.5 92.5 C-137.52370574 89.30068278 -133.73331702 85.97415055 -130 82.5 C-125.38998361 78.2104224 -120.62216764 74.19589103 -115.71484375 70.24609375 C-112.89326505 67.9116941 -110.19409288 65.48009402 -107.5 63 C-103.94329756 59.72581577 -100.32838189 56.59357567 -96.5625 53.5625 C-92.56776014 50.34056899 -88.75445651 46.99344505 -85 43.5 C-80.38995664 39.21044887 -75.62217044 35.19589328 -70.71484375 31.24609375 C-67.89326505 28.9116941 -65.19409288 26.48009402 -62.5 24 C-58.03521405 19.89087268 -53.42457169 16.03395076 -48.6953125 12.234375 C-45.97093388 9.97590461 -43.39594343 7.60503422 -40.8125 5.1875 C-29.28418333 -5.31444826 -13.97982187 -7.41519413 0 0 Z M-35.41455078 30.7565918 C-38.69538534 33.83334785 -42.05541465 36.7408222 -45.5625 39.5625 C-49.32838189 42.59357567 -52.94329756 45.72581577 -56.5 49 C-60.05670244 52.27418423 -63.67161811 55.40642433 -67.4375 58.4375 C-71.43223986 61.65943101 -75.24554349 65.00655495 -79 68.5 C-83.61004336 72.78955113 -88.37782956 76.80410672 -93.28515625 80.75390625 C-96.10673495 83.0883059 -98.80590712 85.51990598 -101.5 88 C-105.05670244 91.27418423 -108.67161811 94.40642433 -112.4375 97.4375 C-116.43224789 100.65943748 -120.24547626 104.00661846 -124 107.5 C-128.66595006 111.84015559 -133.48231984 115.92535431 -138.44921875 119.921875 C-141.5240072 122.42690939 -144.49114049 125.03778107 -147.44140625 127.6875 C-150.43580793 130.20910141 -152.60480343 130.13292072 -156.44018555 130.15771484 C-157.57864426 130.16797699 -158.71710297 130.17823914 -159.89006042 130.18881226 C-161.12645767 130.19611359 -162.36285492 130.20341492 -163.63671875 130.2109375 C-166.24154267 130.23901277 -168.84636029 130.26767727 -171.45117188 130.296875 C-175.56791795 130.33925375 -179.68462602 130.37602157 -183.80151367 130.40136719 C-187.76762911 130.42644085 -191.73331975 130.47489052 -195.69921875 130.5234375 C-197.53863289 130.5283168 -197.53863289 130.5283168 -199.41520691 130.53329468 C-205.65149139 130.62280382 -210.59112926 130.74237942 -216 134 C-218.66901545 136.92181849 -219.37554765 138.80515656 -219.38095093 142.73728943 C-219.3894104 143.68636169 -219.39786987 144.63543396 -219.40658569 145.61326599 C-219.400513 146.64766312 -219.39444031 147.68206024 -219.38818359 148.74780273 C-219.39344055 149.84250885 -219.39869751 150.93721497 -219.40411377 152.06509399 C-219.41733024 155.68807189 -219.4085689 159.31061129 -219.3984375 162.93359375 C-219.4004579 165.44938746 -219.40336905 167.96518059 -219.40713501 170.48097229 C-219.41156072 175.75599651 -219.40540559 181.03090652 -219.39111328 186.3059082 C-219.37479535 192.39876241 -219.38006936 198.4913153 -219.3965925 204.58416218 C-219.4118644 210.45107677 -219.41022528 216.31787714 -219.4014473 222.1848011 C-219.39944502 224.67869166 -219.40190549 227.17258989 -219.40888596 229.66647148 C-219.41650023 233.15212267 -219.4048953 236.6371947 -219.38818359 240.12280273 C-219.39425629 241.15517563 -219.40032898 242.18754852 -219.40658569 243.25120544 C-219.38629454 250.13773329 -219.38629454 250.13773329 -216 256 C-209.70220834 259.93866311 -203.18146149 259.35917424 -195.9453125 259.265625 C-193.36588395 259.26839616 -190.78645644 259.27233862 -188.20703125 259.27734375 C-184.16269243 259.27232804 -180.11882778 259.25183545 -176.07470703 259.20947266 C-172.15629951 259.17030222 -168.238888 259.18700137 -164.3203125 259.203125 C-163.12004425 259.17945862 -161.919776 259.15579224 -160.68313599 259.13140869 C-152.3243389 259.20346155 -147.94120568 261.16261263 -142 267 C-141.11570312 267.77085937 -140.23140625 268.54171875 -139.3203125 269.3359375 C-138.59585938 270.00882813 -137.87140625 270.68171875 -137.125 271.375 C-133.70948452 274.49534748 -130.2293586 277.47494136 -126.625 280.375 C-122.07219493 284.05571847 -117.76582589 287.92648648 -113.4831543 291.91137695 C-109.37239043 295.71385014 -105.07733477 299.24263299 -100.71484375 302.75390625 C-96.93432714 305.88167179 -93.35519125 309.21273883 -89.74609375 312.53515625 C-87.08124834 314.92707297 -84.35168175 317.19254884 -81.5625 319.4375 C-77.02763839 323.09506264 -72.74463817 326.94617027 -68.48291016 330.91162109 C-64.37220724 334.71398807 -60.07724416 338.24270592 -55.71484375 341.75390625 C-52.89326505 344.0883059 -50.19409288 346.51990598 -47.5 349 C-42.99429682 353.14576113 -38.34503566 357.04985698 -33.578125 360.890625 C-30.55161989 363.36685646 -27.64046543 365.95266334 -24.75390625 368.58984375 C-21.6005998 371.12513023 -19.6562361 372 -15.5625 372 C-11.98456992 370.99566875 -10.30417419 370.05615605 -8.03015256 367.13204193 C-5.69377506 362.29658844 -6.32006262 356.66376625 -6.36508179 351.41113281 C-6.35931863 350.00778823 -6.35137619 348.60445119 -6.34144557 347.20112991 C-6.32057513 343.34952885 -6.33088787 339.49854732 -6.34637666 335.64694405 C-6.35768559 331.49143402 -6.34022975 327.33603082 -6.32647705 323.18054199 C-6.30423517 315.04181444 -6.30905003 306.90331734 -6.32354026 298.76458073 C-6.33482877 292.15052968 -6.33636508 285.53654326 -6.33092117 278.92248535 C-6.32977193 277.51086903 -6.32977193 277.51086903 -6.32859946 276.07073522 C-6.32700085 274.15899879 -6.32537978 272.24726238 -6.3237365 270.33552599 C-6.30947622 252.40599872 -6.32587611 234.47659923 -6.35273834 216.54709291 C-6.37507737 201.16023753 -6.37119732 185.77357074 -6.34814453 170.38671875 C-6.32139146 152.52168548 -6.31084954 134.65676422 -6.32620585 116.79171371 C-6.32779861 114.88698071 -6.32937046 112.98224769 -6.33092117 111.07751465 C-6.33207824 109.67173971 -6.33207824 109.67173971 -6.33325868 108.23756528 C-6.33757716 101.6308837 -6.33028594 95.02427312 -6.31852341 88.41760254 C-6.30450535 80.36704447 -6.30828368 72.31673018 -6.33492713 64.26620007 C-6.34807476 60.15803802 -6.35320186 56.05028252 -6.33668137 51.94212341 C-6.32178789 48.18170461 -6.32995897 44.42206936 -6.35656913 40.66172171 C-6.36480497 38.65627177 -6.34847076 36.65076749 -6.33128297 34.6453743 C-6.25588937 27.46780042 -6.25588937 27.46780042 -9.33655739 21.2288208 C-19.29788222 12.89298961 -28.1103607 23.90529393 -35.41455078 30.7565918 Z " fill="#000000" transform="translate(305,61)"/>
<path d="M0 0 C0.74121094 0.04125 1.48242188 0.0825 2.24609375 0.125 C5.73047186 1.44119005 7.72998128 3.85394821 9.5625 7 C10.20747113 9.843294 10.14983219 12.55736306 10.05078125 15.4609375 C10.04370651 16.25150543 10.03663177 17.04207336 10.02934265 17.8565979 C10.00151463 20.36372433 9.93880474 22.86855712 9.875 25.375 C9.84990184 27.08199883 9.82709133 28.78903292 9.80664062 30.49609375 C9.75172691 34.66493648 9.66554076 38.83208038 9.5625 43 C10.62162598 42.97381592 11.68075195 42.94763184 12.77197266 42.9206543 C16.71902155 42.82983448 20.665979 42.77263658 24.61376953 42.7253418 C26.31900589 42.70026955 28.02413554 42.66620236 29.72900391 42.62280273 C32.18679174 42.56182434 34.64315361 42.53371888 37.1015625 42.51171875 C37.85805084 42.48591232 38.61453918 42.4601059 39.39395142 42.43351746 C43.42604822 42.4314034 45.84396688 42.82754628 49.02880859 45.40551758 C52.45632332 48.91526887 52.95785829 50.95582435 52.921875 55.89453125 C52.28668186 59.61593453 50.22270984 61.40312849 47.5625 64 C44.38959287 65.58645357 40.97424616 65.12078213 37.4921875 65.09765625 C36.69595978 65.0962413 35.89973206 65.09482635 35.07937622 65.09336853 C32.5320462 65.08776345 29.98480353 65.07521014 27.4375 65.0625 C25.71224085 65.05748565 23.98698033 65.05292263 22.26171875 65.04882812 C18.02861209 65.03779237 13.79557086 65.02052436 9.5625 65 C9.58868408 66.09465576 9.61486816 67.18931152 9.6418457 68.31713867 C9.73253219 72.38903258 9.78981549 76.46083776 9.8371582 80.53344727 C9.86226061 82.29401676 9.89635028 84.05448247 9.93969727 85.81469727 C10.00054115 88.34938179 10.02875113 90.88268575 10.05078125 93.41796875 C10.07658768 94.20149216 10.1023941 94.98501556 10.12898254 95.7922821 C10.13115499 100.05134863 9.9342948 101.53822073 7.15869141 104.9855957 C3.59333519 107.75198221 1.00699331 108.28758486 -3.4375 108 C-7.30052087 106.76091783 -8.92100689 105.8201822 -11.0871582 102.38037109 C-12.64947472 98.46935418 -12.82035399 95.11408986 -12.73046875 90.9765625 C-12.72622391 90.23038666 -12.72197906 89.48421082 -12.71760559 88.71542358 C-12.70092382 86.35156902 -12.66329339 83.98859324 -12.625 81.625 C-12.60993949 80.0143353 -12.59625348 78.40365713 -12.58398438 76.79296875 C-12.55105504 72.86164485 -12.49934762 68.93097099 -12.4375 65 C-13.98074951 65.0314209 -13.98074951 65.0314209 -15.55517578 65.06347656 C-19.39048213 65.13614994 -23.22572822 65.18189821 -27.06152344 65.21972656 C-28.71820325 65.23978009 -30.37481282 65.26703029 -32.03125 65.30175781 C-34.41944758 65.35055512 -36.80670547 65.37303064 -39.1953125 65.390625 C-40.29723434 65.42159271 -40.29723434 65.42159271 -41.42141724 65.45318604 C-46.57679606 65.45541026 -49.47825748 64.26483828 -53.4375 61 C-55.29476616 57.28546768 -55.02251089 53.04420575 -54.4375 49 C-52.24727082 46.17575712 -50.60732793 44.58491397 -47.4375 43 C-44.81122867 42.91332745 -42.21187517 42.88439865 -39.5859375 42.90234375 C-38.81190582 42.9037587 -38.03787415 42.90517365 -37.24038696 42.90663147 C-34.76438558 42.91223597 -32.28847412 42.92478917 -29.8125 42.9375 C-28.13541797 42.94251442 -26.45833453 42.94707743 -24.78125 42.95117188 C-20.66663194 42.96220685 -16.55208122 42.97947446 -12.4375 43 C-12.45844727 41.97116699 -12.47939453 40.94233398 -12.50097656 39.88232422 C-12.57364994 36.04701787 -12.61939821 32.21177178 -12.65722656 28.37597656 C-12.67728009 26.71929675 -12.70453029 25.06268718 -12.73925781 23.40625 C-12.78805512 21.01805242 -12.81053064 18.63079453 -12.828125 16.2421875 C-12.84877014 15.50757294 -12.86941528 14.77295837 -12.89068604 14.01608276 C-12.89291364 8.85286376 -11.6843221 5.97685666 -8.4375 2 C-5.58571964 0.01222438 -3.43374974 -0.28564989 0 0 Z " fill="#000000" transform="translate(406.4375,202)"/>
</svg>
