<?xml version="1.0" encoding="UTF-8"?>
<svg version="1.1" xmlns="http://www.w3.org/2000/svg" width="512" height="512">
<path d="M0 0 C9.08127779 6.54095385 14.75718399 14.67666017 17.58203125 25.4921875 C18.11181773 29.99265467 18.12326307 34.43754723 18.08996582 38.96533203 C18.09932576 40.940144 18.09932576 40.940144 18.1088748 42.95485115 C18.12546178 46.58020968 18.11737085 50.20514313 18.10492992 53.83050251 C18.09583777 57.75151151 18.1098697 61.67245006 18.12084961 65.59344482 C18.13859519 73.26323533 18.13481257 80.93286888 18.12319905 88.60266542 C18.11414936 94.83849655 18.11294735 101.07428382 18.11729431 107.31011963 C18.11790724 108.19911961 18.11852018 109.08811959 18.11915168 110.00405896 C18.12043064 111.81029305 18.12172749 113.61652713 18.12304205 115.4227612 C18.13443624 132.34238679 18.12135238 149.26192556 18.09984058 166.18153691 C18.08197065 180.6855212 18.08507509 195.1893774 18.10351562 209.69335938 C18.12494287 226.55425308 18.13333771 243.41507077 18.12106657 260.27597618 C18.11979243 262.07540257 18.11853495 263.87482896 18.11729431 265.67425537 C18.11636866 267.00213158 18.11636866 267.00213158 18.11542431 268.35683358 C18.11197696 274.58200355 18.11778645 280.80712512 18.12721252 287.0322876 C18.1384545 294.62324989 18.13534637 302.21404683 18.11408955 309.80499029 C18.10360861 313.67478118 18.09940644 317.54429681 18.11268616 321.41408539 C18.12688698 325.61597544 18.10988125 329.81717615 18.08996582 334.01904297 C18.10335015 335.83905414 18.10335015 335.83905414 18.11700487 337.69583321 C18.00854324 349.51600265 14.80900025 358.87423383 6.58203125 367.4921875 C-1.94648058 375.63377252 -10.77060968 378.79941868 -22.41796875 378.9921875 C-23.50259399 379.02010376 -23.50259399 379.02010376 -24.60913086 379.04858398 C-34.97839488 378.92918385 -43.29507752 374.48856165 -51.29296875 368.2421875 C-52.09541016 367.63375 -52.89785156 367.0253125 -53.72460938 366.3984375 C-56.29898259 364.44231144 -58.85852718 362.46779553 -61.41796875 360.4921875 C-63.15910635 359.1626864 -64.90129915 357.83456611 -66.64453125 356.5078125 C-69.29145678 354.49302524 -71.93753164 352.47722194 -74.57958984 350.45605469 C-80.31443932 346.07225927 -86.09456355 341.75749098 -91.91796875 337.4921875 C-99.54536892 331.9055633 -107.0744144 326.19942412 -114.58203125 320.453125 C-121.07175253 315.49490137 -127.62633003 310.63331149 -134.21655273 305.80981445 C-141.46641014 300.48959428 -148.61297068 295.03716303 -155.7421875 289.55664062 C-156.58523437 288.91017578 -157.42828125 288.26371094 -158.296875 287.59765625 C-159.04525635 287.02168701 -159.7936377 286.44571777 -160.56469727 285.85229492 C-164.06066578 283.2866197 -166.38181068 283.3632029 -170.69677734 283.3503418 C-171.34103668 283.34686737 -171.98529602 283.34339294 -172.64907837 283.33981323 C-174.05136627 283.33245304 -175.45366585 283.32710906 -176.85596848 283.32352257 C-179.08584683 283.31634366 -181.31550682 283.30066131 -183.5453186 283.28218079 C-189.88678773 283.22981664 -196.22814415 283.18186285 -202.56982422 283.16625977 C-206.44978205 283.15608841 -210.32919957 283.12652491 -214.20894241 283.08493996 C-215.67825833 283.07274183 -217.14765102 283.06748793 -218.61701584 283.06973839 C-234.63910925 283.08821786 -246.34456799 279.14931971 -258.16796875 268.1796875 C-267.73733087 258.06866338 -270.88152357 246.51172514 -270.82202148 232.89892578 C-270.82888474 231.78532684 -270.83574799 230.67172791 -270.84281921 229.52438354 C-270.86100943 225.87028992 -270.85726043 222.21662887 -270.8515625 218.5625 C-270.85612819 216.00478985 -270.86143491 213.44708093 -270.8674469 210.88937378 C-270.87636292 205.53833444 -270.8742086 200.18745043 -270.86401367 194.83642578 C-270.85254216 188.67990385 -270.86660286 182.52381805 -270.89341015 176.36735356 C-270.91836571 170.40968986 -270.92072341 164.45215991 -270.91429329 158.49444199 C-270.91414059 155.97562815 -270.92014208 153.45680572 -270.93258476 150.93802261 C-270.94757366 147.40643762 -270.93675847 143.87579514 -270.91967773 140.34423828 C-270.9293457 139.31840637 -270.93901367 138.29257446 -270.94897461 137.23565674 C-270.8101798 123.43136502 -265.37353759 112.73159188 -256.10546875 102.7421875 C-246.06054849 93.23538797 -234.97697093 90.09368162 -221.40467834 90.3589325 C-220.72600267 90.37833075 -220.047327 90.397729 -219.3480854 90.41771507 C-216.42651034 90.49365489 -213.50526435 90.51339894 -210.58287716 90.53745747 C-205.17199232 90.58282455 -199.76353571 90.64996219 -194.35473633 90.81079102 C-176.78070553 91.30892456 -162.77326833 91.69496177 -149.08959961 79.06762695 C-148.45843231 78.44828278 -147.82726501 77.8289386 -147.17697144 77.19082642 C-144.83136113 74.92571052 -142.27259441 73.03089888 -139.63671875 71.1171875 C-138.0628556 69.91008723 -136.48991531 68.70178259 -134.91796875 67.4921875 C-127.53300079 61.83678453 -120.0859862 56.2774578 -112.58203125 50.78125 C-106.64125263 46.41941587 -100.77049786 41.97156341 -94.91796875 37.4921875 C-87.51256431 31.82555545 -80.05916695 26.2339249 -72.53149414 20.73071289 C-68.36692312 17.68215797 -64.23387417 14.59969399 -60.13671875 11.4609375 C-59.25443604 10.78812744 -58.37215332 10.11531738 -57.46313477 9.42211914 C-55.78390282 8.13907337 -54.10949802 6.84967244 -52.44116211 5.55249023 C-37.04028325 -6.18419122 -17.36884843 -10.83097818 0 0 Z M-31.48046875 31.4921875 C-32.07061768 31.93079102 -32.6607666 32.36939453 -33.26879883 32.82128906 C-35.33113183 34.3622119 -37.37484954 35.92588727 -39.41796875 37.4921875 C-41.05569453 38.73736733 -42.69373066 39.98213905 -44.33203125 41.2265625 C-46.99898868 43.25548106 -49.66389503 45.28692659 -52.32446289 47.32421875 C-58.14310988 51.77808786 -64.00562378 56.16362831 -69.91796875 60.4921875 C-76.64305093 65.41767904 -83.29850167 70.42567457 -89.91796875 75.4921875 C-97.29773985 81.140634 -104.73548858 86.69833014 -112.23413086 92.18774414 C-119.24165786 97.33079588 -126.15275069 102.59635352 -133.0390625 107.90039062 C-150.90116969 121.60688139 -150.90116969 121.60688139 -158.92797852 121.64990234 C-159.93085655 121.65752342 -159.93085655 121.65752342 -160.95399475 121.66529846 C-162.40866849 121.6760099 -163.86335878 121.68462704 -165.31805611 121.69141769 C-167.62691425 121.70321462 -169.935586 121.72267332 -172.24436951 121.74453735 C-178.81006576 121.80609849 -185.37574652 121.86002956 -191.94165039 121.89355469 C-195.95767909 121.914612 -199.97337359 121.9500113 -203.98921013 121.99431229 C-205.51403784 122.00839501 -207.03892476 122.01717712 -208.56381416 122.02036667 C-221.50417254 121.66545186 -221.50417254 121.66545186 -232.98756409 126.76669312 C-238.56905241 132.78718189 -238.71492511 140.2307758 -238.69262695 147.95654297 C-238.69773788 148.87945129 -238.70284882 149.80235962 -238.70811462 150.75323486 C-238.72195668 153.78868182 -238.72105783 156.82390033 -238.71875 159.859375 C-238.72264 161.98015425 -238.7269753 164.10093273 -238.73173523 166.22171021 C-238.73918596 170.66166716 -238.73891455 175.10154457 -238.73364258 179.54150391 C-238.72785085 185.21618054 -238.74477756 190.89053047 -238.76798725 196.56515312 C-238.78275758 200.94391771 -238.78359177 205.32260422 -238.78047752 209.70138931 C-238.78098912 211.79285453 -238.78619632 213.8843243 -238.79628944 215.97576523 C-238.80869989 218.90707041 -238.8018344 221.83774698 -238.7902832 224.76904297 C-238.79792694 225.62335907 -238.80557068 226.47767517 -238.81344604 227.35787964 C-238.76047184 233.47535495 -238.09439794 240.14466448 -234.14305592 245.08677483 C-228.76067154 249.98687318 -222.3470311 250.74367294 -215.34033203 250.71582031 C-214.67101654 250.71622818 -214.00170105 250.71663605 -213.31210327 250.71705627 C-211.87114071 250.7172525 -210.43017251 250.71326401 -208.98923111 250.70545197 C-206.70088179 250.69514403 -204.41307031 250.70066451 -202.12472534 250.71087646 C-195.6229284 250.73870984 -189.12143968 250.75139431 -182.61962891 250.72216797 C-178.63007649 250.705365 -174.64149134 250.71786329 -170.65203476 250.74861908 C-169.14112623 250.75468807 -167.63013082 250.74994815 -166.11929703 250.73374176 C-156.96687727 250.63965383 -150.49747991 251.26207882 -143.41796875 257.4921875 C-142.54414551 258.12833984 -141.67032227 258.76449219 -140.77001953 259.41992188 C-140.0582959 259.96970703 -139.34657227 260.51949219 -138.61328125 261.0859375 C-137.79279297 261.71628906 -136.97230469 262.34664062 -136.12695312 262.99609375 C-135.27423828 263.65480469 -134.42152344 264.31351563 -133.54296875 264.9921875 C-126.7183115 270.23005165 -119.86053737 275.41161608 -112.91796875 280.4921875 C-105.29031502 286.07845828 -97.76151504 291.78495706 -90.25390625 297.53125 C-83.75335389 302.4977487 -77.18758251 307.36709847 -70.58642578 312.19873047 C-65.50464102 315.92790877 -60.47788613 319.72189988 -55.47680664 323.55859375 C-48.02956207 329.27088032 -40.56700743 334.96573603 -32.98046875 340.4921875 C-31.96122314 341.25813232 -31.96122314 341.25813232 -30.92138672 342.03955078 C-27.00965482 344.84688648 -24.41364606 346.28828228 -19.41796875 345.4921875 C-16.57016256 343.26012319 -15.56799209 341.94225751 -14.41796875 338.4921875 C-14.32433272 336.79324929 -14.28884728 335.09084495 -14.28654099 333.38932991 C-14.28269984 332.327488 -14.2788587 331.2656461 -14.27490115 330.17162716 C-14.27576763 329.000928 -14.27663412 327.83022885 -14.27752686 326.62405396 C-14.27455573 325.38361859 -14.27158461 324.14318323 -14.26852345 322.86515892 C-14.26133466 319.41549632 -14.25866348 315.96588352 -14.25792599 312.51621699 C-14.25607673 308.79834226 -14.24853009 305.08047835 -14.24179077 301.36260986 C-14.22820228 293.23048123 -14.22218208 285.09835752 -14.21778011 276.96621943 C-14.21501887 271.89045132 -14.21078176 266.81468512 -14.20627594 261.7389183 C-14.19408317 247.69088676 -14.1837835 233.64285675 -14.18040085 219.59482002 C-14.18018128 218.69552938 -14.17996172 217.79623873 -14.1797355 216.86969685 C-14.17951722 215.96823426 -14.17929894 215.06677166 -14.17907405 214.13799202 C-14.17863058 212.31123296 -14.17818402 210.4844739 -14.17773438 208.65771484 C-14.17751295 207.75157601 -14.17729152 206.84543718 -14.17706338 205.91183959 C-14.17311389 191.22343713 -14.15565533 176.53508423 -14.13237485 161.84670092 C-14.10867663 146.77334441 -14.09619972 131.70001279 -14.09503293 116.62663734 C-14.09411537 108.16063162 -14.0883426 99.6946905 -14.07021332 91.22870255 C-14.05483302 84.02095736 -14.04967962 76.81329673 -14.05795142 69.60553826 C-14.06186515 65.92695022 -14.06089328 62.24853257 -14.04689407 58.56996536 C-14.03186598 54.58466557 -14.04000017 50.59960718 -14.05047607 46.61428833 C-14.04241967 45.44805061 -14.03436327 44.2818129 -14.02606273 43.08023465 C-14.03265257 42.01317725 -14.03924242 40.94611984 -14.04603195 39.84672737 C-14.04513632 38.46679484 -14.04513632 38.46679484 -14.04422259 37.05898488 C-14.63587219 32.99567985 -16.55687355 30.3532827 -19.41796875 27.4921875 C-24.75862196 26.76288066 -27.26826206 28.31867862 -31.48046875 31.4921875 Z " fill="#000000" transform="translate(302.41796875,69.5078125)"/>
<path d="M0 0 C1.04462402 -0.00700928 2.08924805 -0.01401855 3.16552734 -0.02124023 C6.61062381 -0.0388121 10.05489551 -0.02719969 13.5 -0.01367188 C15.8984391 -0.016367 18.29687714 -0.0202496 20.6953125 -0.02526855 C25.71885595 -0.03116254 30.74211467 -0.02260346 35.765625 -0.00390625 C42.20189072 0.01888275 48.63748922 0.00575921 55.07373047 -0.01819611 C60.02544168 -0.03265649 64.97699495 -0.02804688 69.92871094 -0.01768494 C72.30175862 -0.01501834 74.67482068 -0.01828502 77.04785156 -0.02760315 C80.36562028 -0.03777219 83.68231145 -0.02226121 87 0 C88.46832275 -0.01214539 88.46832275 -0.01214539 89.96630859 -0.02453613 C95.66037885 0.04617256 98.99980593 0.68240588 103.5 4.51757812 C107.12833663 8.33687985 107.81000458 11.40036819 108 16.51757812 C107.81000458 21.63478806 107.12833663 24.6982764 103.5 28.51757812 C98.13277344 33.09165605 93.72889928 33.09081505 87 33.03515625 C85.95537598 33.04216553 84.91075195 33.0491748 83.83447266 33.05639648 C80.38937619 33.07396835 76.94510449 33.06235594 73.5 33.04882812 C71.1015609 33.05152325 68.70312286 33.05540585 66.3046875 33.0604248 C61.28114405 33.06631879 56.25788533 33.05775971 51.234375 33.0390625 C44.79810928 33.0162735 38.36251078 33.02939704 31.92626953 33.05335236 C26.97455832 33.06781274 22.02300505 33.06320313 17.07128906 33.05284119 C14.69824138 33.05017459 12.32517932 33.05344127 9.95214844 33.0627594 C6.63437972 33.07292844 3.31768855 33.05741746 0 33.03515625 C-1.46832275 33.04730164 -1.46832275 33.04730164 -2.96630859 33.05969238 C-8.66037885 32.98898369 -11.99980593 32.35275037 -16.5 28.51757812 C-20.12833663 24.6982764 -20.81000458 21.63478806 -21 16.51757812 C-20.81000458 11.40036819 -20.12833663 8.33687985 -16.5 4.51757812 C-11.13277344 -0.0564998 -6.72889928 -0.0556588 0 0 Z " fill="#000000" transform="translate(372.5,239.482421875)"/>
</svg>
